<svg xmlns="http://www.w3.org/2000/svg" viewBox="-20.0 -747.0 7624.0 777.0" role="img" aria-label="OUTIS SMITH">
  <path fill="#FFFFFF" d="M102.3983154296875 -350.0Q102.3983154296875 -437.800537109375 139.698486328125 -506.200927734375Q176.9986572265625 -574.601318359375 242.5989990234375 -614.2015380859375Q308.1993408203125 -653.8017578125 391.7998046875 -653.8017578125Q476.4002685546875 -653.8017578125 541.5006103515625 -614.2015380859375Q606.6009521484375 -574.601318359375 643.901123046875 -506.200927734375Q681.2012939453125 -437.800537109375 681.2012939453125 -350.0Q681.2012939453125 -262.5994873046875 643.901123046875 -193.99908447265625Q606.6009521484375 -125.398681640625 541.5006103515625 -85.7984619140625Q476.4002685546875 -46.1982421875 391.7998046875 -46.1982421875Q308.1993408203125 -46.1982421875 242.5989990234375 -85.7984619140625Q176.9986572265625 -125.398681640625 139.698486328125 -193.99908447265625Q102.3983154296875 -262.5994873046875 102.3983154296875 -350.0ZM44.000244140625 -350.0Q44.000244140625 -273.199951171875 69.90020751953125 -207.39996337890625Q95.8001708984375 -141.5999755859375 142.80010986328125 -93.29998779296875Q189.800048828125 -45.0 253.39996337890625 -17.9000244140625Q316.9998779296875 9.199951171875 391.7998046875 9.199951171875Q467.19970703125 9.199951171875 530.4996337890625 -17.9000244140625Q593.799560546875 -45.0 640.7994995117188 -93.29998779296875Q687.7994384765625 -141.5999755859375 713.6994018554688 -207.39996337890625Q739.599365234375 -273.199951171875 739.599365234375 -350.0Q739.599365234375 -427.4000244140625 713.6994018554688 -492.9000244140625Q687.7994384765625 -558.4000244140625 640.7994995117188 -606.7000122070312Q593.799560546875 -655.0 530.4996337890625 -682.0999755859375Q467.19970703125 -709.199951171875 391.7998046875 -709.199951171875Q316.9998779296875 -709.199951171875 253.39996337890625 -682.0999755859375Q189.800048828125 -655.0 142.80010986328125 -606.7000122070312Q95.8001708984375 -558.4000244140625 69.90020751953125 -492.9000244140625Q44.000244140625 -427.4000244140625 44.000244140625 -350.0Z M1063.000244140625 -700.0V-225.999755859375Q1063.000244140625 -173.999755859375 1077.900146484375 -130.59979248046875Q1092.800048828125 -87.1998291015625 1121.89990234375 -55.9998779296875Q1150.999755859375 -24.7999267578125 1192.599609375 -7.39996337890625Q1234.199462890625 10.0 1286.9993896484375 10.0Q1339.79931640625 10.0 1381.399169921875 -7.39996337890625Q1422.9990234375 -24.7999267578125 1452.098876953125 -55.9998779296875Q1481.19873046875 -87.1998291015625 1496.0986328125 -130.59979248046875Q1510.99853515625 -173.999755859375 1510.99853515625 -225.999755859375V-700.0H1455.600341796875V-225.999755859375Q1455.600341796875 -141.9990234375 1411.800048828125 -92.19866943359375Q1367.999755859375 -42.3983154296875 1286.9993896484375 -42.3983154296875Q1205.9990234375 -42.3983154296875 1162.19873046875 -92.19866943359375Q1118.3984375 -141.9990234375 1118.3984375 -225.999755859375V-700.0Z M1804.000244140625 -647.6016845703125H1988.00048828125V0.0H2043.398681640625V-647.6016845703125H2227.39892578125V-700.0H1804.000244140625Z M2523.0001220703125 -700.0V0.0H2577.998291015625V-700.0Z M2949.198974609375 -202.3994140625 2904.0003662109375 -173.6004638671875Q2921.0 -125.2003173828125 2952.0996704101562 -83.30023193359375Q2983.1993408203125 -41.400146484375 3029.2991943359375 -16.10009765625Q3075.3990478515625 9.199951171875 3135.5992431640625 9.199951171875Q3178.79931640625 9.199951171875 3215.69921875 -4.60003662109375Q3252.59912109375 -18.4000244140625 3280.2989501953125 -43.5999755859375Q3307.998779296875 -68.7999267578125 3323.4986572265625 -103.99981689453125Q3338.99853515625 -139.19970703125 3338.99853515625 -181.99951171875Q3338.99853515625 -228.3994140625 3322.9985961914062 -261.89935302734375Q3306.9986572265625 -295.3992919921875 3281.2987060546875 -319.29925537109375Q3255.5987548828125 -343.19921875 3224.7987670898438 -359.19921875Q3193.998779296875 -375.19921875 3164.7987060546875 -385.999267578125Q3108.5989990234375 -406.19921875 3070.6988525390625 -428.499267578125Q3032.7987060546875 -450.79931640625 3013.7984619140625 -479.09954833984375Q2994.7982177734375 -507.3997802734375 2994.7982177734375 -545.600341796875Q2994.7982177734375 -593.201171875 3027.7986450195312 -624.5014038085938Q3060.799072265625 -655.8016357421875 3122.1993408203125 -655.8016357421875Q3167.599609375 -655.8016357421875 3198.6997680664062 -638.6015625Q3229.7999267578125 -621.4014892578125 3250.199951171875 -595.201416015625Q3270.5999755859375 -569.0013427734375 3281.9998779296875 -542.2012939453125L3330.1983642578125 -569.0003662109375Q3316.3985595703125 -602.8001708984375 3289.19873046875 -634.9000854492188Q3261.9989013671875 -667.0 3221.4990234375 -688.0999755859375Q3180.9991455078125 -709.199951171875 3125.19921875 -709.199951171875Q3070.5994873046875 -709.199951171875 3027.9996948242188 -687.7000732421875Q2985.39990234375 -666.2001953125 2961.2000122070312 -627.8003540039062Q2937.0001220703125 -589.4005126953125 2937.0001220703125 -539.0006103515625Q2937.0001220703125 -494.2008056640625 2954.300048828125 -462.20086669921875Q2971.5999755859375 -430.200927734375 2999.5999145507812 -407.700927734375Q3027.599853515625 -385.200927734375 3060.1998901367188 -369.5008544921875Q3092.7999267578125 -353.80078125 3122.8001708984375 -342.8006591796875Q3162.8001708984375 -328.400634765625 3199.3002319335938 -308.70050048828125Q3235.80029296875 -289.0003662109375 3258.8003540039062 -257.8001708984375Q3281.8004150390625 -226.5999755859375 3281.8004150390625 -175.999755859375Q3281.8004150390625 -118.399169921875 3243.2001342773438 -80.79876708984375Q3204.599853515625 -43.1983642578125 3137.399169921875 -43.1983642578125Q3086.5986328125 -43.1983642578125 3050.5984497070312 -64.59857177734375Q3014.5982666015625 -85.998779296875 2990.2984008789062 -122.19903564453125Q2965.99853515625 -158.3992919921875 2949.198974609375 -202.3994140625Z M4173.198974609375 -202.3994140625 4128.0003662109375 -173.6004638671875Q4145.0 -125.2003173828125 4176.099670410156 -83.30023193359375Q4207.1993408203125 -41.400146484375 4253.2991943359375 -16.10009765625Q4299.3990478515625 9.199951171875 4359.5992431640625 9.199951171875Q4402.79931640625 9.199951171875 4439.69921875 -4.60003662109375Q4476.59912109375 -18.4000244140625 4504.2989501953125 -43.5999755859375Q4531.998779296875 -68.7999267578125 4547.4986572265625 -103.99981689453125Q4562.99853515625 -139.19970703125 4562.99853515625 -181.99951171875Q4562.99853515625 -228.3994140625 4546.998596191406 -261.89935302734375Q4530.9986572265625 -295.3992919921875 4505.2987060546875 -319.29925537109375Q4479.5987548828125 -343.19921875 4448.798767089844 -359.19921875Q4417.998779296875 -375.19921875 4388.7987060546875 -385.999267578125Q4332.5989990234375 -406.19921875 4294.6988525390625 -428.499267578125Q4256.7987060546875 -450.79931640625 4237.7984619140625 -479.09954833984375Q4218.7982177734375 -507.3997802734375 4218.7982177734375 -545.600341796875Q4218.7982177734375 -593.201171875 4251.798645019531 -624.5014038085938Q4284.799072265625 -655.8016357421875 4346.1993408203125 -655.8016357421875Q4391.599609375 -655.8016357421875 4422.699768066406 -638.6015625Q4453.7999267578125 -621.4014892578125 4474.199951171875 -595.201416015625Q4494.5999755859375 -569.0013427734375 4505.9998779296875 -542.2012939453125L4554.1983642578125 -569.0003662109375Q4540.3985595703125 -602.8001708984375 4513.19873046875 -634.9000854492188Q4485.9989013671875 -667.0 4445.4990234375 -688.0999755859375Q4404.9991455078125 -709.199951171875 4349.19921875 -709.199951171875Q4294.5994873046875 -709.199951171875 4251.999694824219 -687.7000732421875Q4209.39990234375 -666.2001953125 4185.200012207031 -627.8003540039062Q4161.0001220703125 -589.4005126953125 4161.0001220703125 -539.0006103515625Q4161.0001220703125 -494.2008056640625 4178.300048828125 -462.20086669921875Q4195.5999755859375 -430.200927734375 4223.599914550781 -407.700927734375Q4251.599853515625 -385.200927734375 4284.199890136719 -369.5008544921875Q4316.7999267578125 -353.80078125 4346.8001708984375 -342.8006591796875Q4386.8001708984375 -328.400634765625 4423.300231933594 -308.70050048828125Q4459.80029296875 -289.0003662109375 4482.800354003906 -257.8001708984375Q4505.8004150390625 -226.5999755859375 4505.8004150390625 -175.999755859375Q4505.8004150390625 -118.399169921875 4467.200134277344 -80.79876708984375Q4428.599853515625 -43.1983642578125 4361.399169921875 -43.1983642578125Q4310.5986328125 -43.1983642578125 4274.598449707031 -64.59857177734375Q4238.5982666015625 -85.998779296875 4214.298400878906 -122.19903564453125Q4189.99853515625 -158.3992919921875 4173.198974609375 -202.3994140625Z M4970.9991455078125 -553.804931640625 5217.000244140625 -81.0009765625 5463.0013427734375 -553.804931640625 5522.601806640625 0.0H5578.0L5497.000244140625 -726.99951171875L5217.000244140625 -189.1976318359375L4937.000244140625 -726.99951171875L4856.00048828125 0.0H4911.398681640625Z M5908.0001220703125 -700.0V0.0H5962.998291015625V-700.0Z M6259.000244140625 -647.6016845703125H6443.00048828125V0.0H6498.398681640625V-647.6016845703125H6682.39892578125V-700.0H6259.000244140625Z M7009.399169921875 -354.8009033203125H7481.398681640625V-406.7991943359375H7009.399169921875ZM7444.39990234375 -700.0V0.0H7499.798095703125V-700.0ZM6980.000244140625 -700.0V0.0H7035.3984375V-700.0Z"/>
</svg>
